# Blender v2.83.20 OBJ File: 'chuckhandle.blend'
# www.blender.org
mtllib chuckhandle.mtl
o Cube.003_Cube.004
v 0.515460 1.984492 1.091123
v 0.463582 1.768029 1.091123
v 0.515460 1.984492 1.313715
v 0.463582 1.768029 1.313715
v 0.298997 2.036370 1.091123
v 0.247119 1.819908 1.091123
v 0.298997 2.036370 1.313715
v 0.247119 1.819908 1.313715
v 0.514823 1.981835 1.313715
v 0.445954 2.094121 1.220572
v 0.517104 1.996272 1.312568
v 0.517098 2.010887 1.309156
v 0.514806 2.025322 1.303563
v 0.510284 2.039221 1.295926
v 0.503644 2.052241 1.286434
v 0.495048 2.064062 1.275320
v 0.484709 2.074393 1.262858
v 0.472881 2.082979 1.249355
v 0.459856 2.089610 1.235143
v 0.445954 2.094121 1.184265
v 0.514823 1.981835 1.091123
v 0.459856 2.089610 1.169695
v 0.472881 2.082979 1.155483
v 0.484709 2.074393 1.141979
v 0.495048 2.064062 1.129517
v 0.503644 2.052241 1.118403
v 0.510284 2.039221 1.108911
v 0.514806 2.025322 1.101274
v 0.517098 2.010887 1.095681
v 0.517104 1.996272 1.092269
v 0.298360 2.033713 1.313715
v 0.410646 2.102583 1.220572
v 0.302871 2.047615 1.312568
v 0.309502 2.060641 1.309156
v 0.318088 2.072469 1.303563
v 0.328419 2.082808 1.295926
v 0.340240 2.091403 1.286434
v 0.353260 2.098044 1.275320
v 0.367159 2.102566 1.262858
v 0.381594 2.104858 1.249355
v 0.396210 2.104863 1.235143
v 0.298360 2.033713 1.091123
v 0.410646 2.102583 1.184265
v 0.302871 2.047615 1.092269
v 0.309502 2.060641 1.095681
v 0.318088 2.072469 1.101274
v 0.328419 2.082808 1.108911
v 0.340240 2.091403 1.118403
v 0.353260 2.098044 1.129517
v 0.367159 2.102566 1.141979
v 0.381594 2.104858 1.155483
v 0.396210 2.104863 1.169695
vt 0.625000 0.000000
vt 0.375000 0.000000
vt 0.375000 0.250000
vt 0.625000 0.250000
vt 0.375000 0.500000
vt 0.625000 0.500000
vt 0.375000 0.750000
vt 0.625000 0.750000
vt 0.375000 1.000000
vt 0.375000 0.750000
vt 0.875000 0.500000
vt 0.375000 0.250000
vt 0.270389 0.604611
vt 0.229611 0.604611
vt 0.229611 0.645389
vt 0.375000 0.500000
vt 0.213246 0.588246
vt 0.197285 0.572285
vt 0.197285 0.677715
vt 0.182119 0.557119
vt 0.182119 0.692881
vt 0.168122 0.543122
vt 0.168122 0.706878
vt 0.125000 0.530640
vt 0.375000 0.030640
vt 0.375000 0.219360
vt 0.375000 0.230021
vt 0.375000 0.019979
vt 0.375000 0.238598
vt 0.375000 0.011402
vt 0.375000 0.244880
vt 0.375000 0.248712
vt 0.375000 0.001288
vt 0.286754 0.588246
vt 0.302715 0.572285
vt 0.317881 0.557119
vt 0.331878 0.543122
vt 0.344360 0.500000
vt 0.375000 0.280640
vt 0.375000 0.469360
vt 0.375000 0.480021
vt 0.375000 0.269979
vt 0.375000 0.488598
vt 0.375000 0.261402
vt 0.375000 0.494880
vt 0.375000 0.498712
vt 0.375000 0.251288
vt 0.270389 0.645389
vt 0.286754 0.661754
vt 0.302715 0.677715
vt 0.317881 0.692881
vt 0.331878 0.706878
vt 0.375000 0.719360
vt 0.375000 0.530640
vt 0.375000 0.730021
vt 0.375000 0.519979
vt 0.375000 0.738598
vt 0.375000 0.511402
vt 0.375000 0.744880
vt 0.375000 0.748712
vt 0.375000 0.501288
vt 0.213246 0.661754
vt 0.155640 0.750000
vt 0.375000 0.780640
vt 0.375000 0.969360
vt 0.375000 0.980021
vt 0.375000 0.769979
vt 0.375000 0.988598
vt 0.375000 0.761402
vt 0.375000 0.994880
vt 0.375000 0.998712
vt 0.375000 0.751288
vt 0.375000 1.000000
vt 0.375000 -0.000000
vt 0.625000 1.000000
vt 0.875000 0.750000
vt 0.125000 0.719360
vt 0.375000 0.005120
vt 0.155640 0.500000
vt 0.375000 0.255120
vt 0.375000 0.505120
vt 0.344360 0.750000
vt 0.375000 0.755120
vn 0.9725 -0.2331 0.0000
vn 0.0000 0.0000 1.0000
vn -0.9725 0.2331 0.0000
vn 0.0000 0.0000 -1.0000
vn -0.2331 -0.9725 0.0000
vn 0.2331 0.9725 0.0000
vn 0.3086 0.9512 0.0000
vn 0.4536 0.8912 0.0000
vn 0.5875 0.8092 0.0000
vn 0.7068 0.7074 0.0000
vn 0.8088 0.5881 0.0000
vn 0.8908 0.4543 0.0000
vn 0.9509 0.3094 0.0000
vn 0.9876 0.1568 0.0000
vn 1.0000 0.0004 0.0000
vn 0.9877 -0.1560 0.0000
vn 0.2323 0.9695 0.0785
vn 0.2266 0.9456 0.2334
vn 0.2153 0.8984 0.3827
vn 0.1987 0.8292 0.5225
vn 0.1772 0.7395 0.6494
vn 0.1514 0.6316 0.7604
vn 0.1218 0.5081 0.8526
vn 0.0892 0.3722 0.9239
vn 0.0544 0.2270 0.9724
vn 0.0183 0.0763 0.9969
vn 0.1560 0.9878 0.0000
vn -0.0004 1.0000 0.0000
vn -0.1568 0.9876 0.0000
vn -0.3094 0.9509 0.0000
vn -0.4543 0.8908 0.0000
vn -0.5881 0.8088 0.0000
vn -0.7074 0.7068 0.0000
vn -0.8092 0.5875 0.0000
vn -0.8912 0.4536 0.0000
vn -0.9512 0.3086 0.0000
vn 0.2323 0.9695 -0.0785
vn 0.2266 0.9456 -0.2335
vn 0.2153 0.8984 -0.3827
vn 0.1987 0.8292 -0.5225
vn 0.1772 0.7395 -0.6494
vn 0.1514 0.6315 -0.7604
vn 0.1218 0.5081 -0.8526
vn 0.0892 0.3722 -0.9239
vn 0.0544 0.2270 -0.9724
vn 0.0183 0.0763 -0.9969
vn -0.9725 0.2330 0.0000
vn 0.9877 -0.1561 0.0000
vn 0.2323 0.9695 0.0784
vn 0.1560 0.9877 0.0000
vn 0.2323 0.9695 -0.0784
vn 0.2266 0.9456 -0.2334
vn 0.1987 0.8291 -0.5225
vn 0.1514 0.6316 -0.7604
usemtl None
s off
f 2/1/1 1/2/1 3/3/1
f 4/4/2 3/3/2 7/5/2
f 8/6/3 7/5/3 5/7/3
f 6/8/4 5/7/4 1/9/4
f 1/9/2 5/7/2 42/10/2
f 4/11/5 8/6/5 6/8/5
f 7/5/4 3/3/4 9/12/4
f 32/13/6 10/14/6 20/15/6
f 5/7/1 7/5/1 31/16/1
f 20/15/7 10/14/7 19/17/7
f 19/17/8 18/18/8 23/19/8
f 23/19/9 18/18/9 17/20/9
f 24/21/10 17/20/10 16/22/10
f 25/23/11 16/22/11 15/24/11
f 26/25/12 15/26/12 14/27/12
f 27/28/13 14/27/13 13/29/13
f 28/30/14 13/29/14 12/31/14
f 12/31/15 11/32/15 30/33/15
f 30/33/16 11/32/16 9/12/16
f 10/14/17 32/13/17 41/34/17
f 41/34/18 40/35/18 18/18/18
f 18/18/19 40/35/19 39/36/19
f 17/20/20 39/36/20 38/37/20
f 16/22/21 38/37/21 37/38/21
f 15/39/22 37/40/22 36/41/22
f 14/42/23 36/41/23 35/43/23
f 13/44/24 35/43/24 34/45/24
f 34/45/25 33/46/25 11/47/25
f 11/47/26 33/46/26 31/16/26
f 32/13/27 43/48/27 52/49/27
f 52/49/28 51/50/28 40/35/28
f 40/35/29 51/50/29 50/51/29
f 39/36/30 50/51/30 49/52/30
f 38/37/31 49/52/31 48/53/31
f 37/54/32 48/53/32 47/55/32
f 36/56/33 47/55/33 46/57/33
f 35/58/34 46/57/34 45/59/34
f 45/59/35 44/60/35 33/61/35
f 33/61/36 44/60/36 42/10/36
f 43/48/37 20/15/37 22/62/37
f 22/62/38 23/19/38 51/50/38
f 51/50/39 23/19/39 24/21/39
f 50/51/40 24/21/40 25/23/40
f 49/52/41 25/23/41 26/63/41
f 48/64/42 26/65/42 27/66/42
f 47/67/43 27/66/43 28/68/43
f 46/69/44 28/68/44 29/70/44
f 29/70/45 30/71/45 44/72/45
f 44/72/46 30/71/46 21/73/46
f 3/3/47 1/2/47 21/74/47
f 2/1/1 3/3/1 4/4/1
f 4/4/2 7/5/2 8/6/2
f 8/6/3 5/7/3 6/8/3
f 6/8/4 1/9/4 2/75/4
f 1/9/2 42/10/2 21/73/2
f 4/11/5 6/8/5 2/76/5
f 7/5/4 9/12/4 31/16/4
f 32/13/6 20/15/6 43/48/6
f 5/7/1 31/16/1 42/10/1
f 20/15/7 19/17/7 22/62/7
f 19/17/8 23/19/8 22/62/8
f 23/19/9 17/20/9 24/21/9
f 24/21/10 16/22/10 25/23/10
f 25/23/11 15/24/11 26/77/11
f 26/25/12 14/27/12 27/28/12
f 27/28/13 13/29/13 28/30/13
f 28/30/14 12/31/14 29/78/14
f 12/31/15 30/33/15 29/78/15
f 30/33/48 9/12/48 21/74/48
f 10/14/49 41/34/49 19/17/49
f 41/34/18 18/18/18 19/17/18
f 18/18/19 39/36/19 17/20/19
f 17/20/20 38/37/20 16/22/20
f 16/22/21 37/38/21 15/79/21
f 15/39/22 36/41/22 14/42/22
f 14/42/23 35/43/23 13/44/23
f 13/44/24 34/45/24 12/80/24
f 34/45/25 11/47/25 12/80/25
f 11/47/26 31/16/26 9/12/26
f 32/13/50 52/49/50 41/34/50
f 52/49/28 40/35/28 41/34/28
f 40/35/29 50/51/29 39/36/29
f 39/36/30 49/52/30 38/37/30
f 38/37/31 48/53/31 37/54/31
f 37/54/32 47/55/32 36/56/32
f 36/56/33 46/57/33 35/58/33
f 35/58/34 45/59/34 34/81/34
f 45/59/35 33/61/35 34/81/35
f 33/61/36 42/10/36 31/16/36
f 43/48/51 22/62/51 52/49/51
f 22/62/52 51/50/52 52/49/52
f 51/50/39 24/21/39 50/51/39
f 50/51/53 25/23/53 49/52/53
f 49/52/41 26/63/41 48/82/41
f 48/64/54 27/66/54 47/67/54
f 47/67/43 28/68/43 46/69/43
f 46/69/44 29/70/44 45/83/44
f 29/70/45 44/72/45 45/83/45
f 44/72/46 21/73/46 42/10/46
f 3/3/3 21/74/3 9/12/3
